<svg width="259" height="289" viewBox="0 0 259 289" fill="none" xmlns="http://www.w3.org/2000/svg">
<path d="M243.416 0.508155L243.382 0.502195L243.347 0.50108C243.038 0.491206 242.73 0.549145 242.446 0.67084C242.162 0.792536 241.908 0.975042 241.701 1.20553L241.663 1.24854L241.635 1.29918C238.461 7.11169 234.77 14.6488 232.251 20.5337C203.891 16.2992 175.058 16.299 146.698 20.5331C144.178 14.4829 140.482 7.11596 137.13 1.29988C136.964 0.979942 136.666 0.784364 136.383 0.671013C136.088 0.553436 135.754 0.500825 135.434 0.500825H135.391L135.349 0.508155C108.404 5.17336 82.7147 13.2444 58.6398 24.3633C58.4515 24.3962 58.3026 24.4911 58.2062 24.5634C58.0875 24.6523 57.9759 24.7638 57.8936 24.8461L57.8834 24.8564L57.8485 24.8912L57.8211 24.9321C8.92633 98.0128 -4.565 169.136 2.08302 239.533C2.09137 240.033 2.34185 240.553 2.85666 240.83C35.2076 264.522 66.3053 278.886 97.0418 288.402C97.7109 288.622 98.5343 288.453 98.8764 287.832C106.064 277.958 112.534 267.544 118.106 256.591L118.108 256.588C118.35 256.105 118.363 255.586 118.159 255.146C117.961 254.717 117.576 254.403 117.096 254.273C106.897 250.34 97.2335 245.692 87.746 240.327L87.7348 240.321L87.7233 240.315C87.5622 240.235 87.4527 240.063 87.438 239.814C87.4237 239.571 87.508 239.326 87.6506 239.168C88.6319 238.454 89.6121 237.697 90.5857 236.946L90.5881 236.944C91.5766 236.181 92.5582 235.423 93.5387 234.711L93.5704 234.688L93.5982 234.66C93.771 234.488 94.0645 234.468 94.2781 234.575L94.286 234.579L94.2941 234.582C156.183 262.796 222.94 262.797 284.114 234.581L284.121 234.578L284.128 234.575C284.341 234.468 284.635 234.488 284.808 234.66L284.825 234.678L284.845 234.694C285.838 235.506 286.831 236.272 287.818 237.034C288.806 237.796 289.788 238.554 290.769 239.356L290.777 239.363L290.786 239.369C291.017 239.543 291.115 239.788 291.102 239.993C291.091 240.181 290.989 240.37 290.72 240.477L290.684 240.492L290.65 240.512C281.354 246.048 271.516 250.517 261.309 254.453C260.766 254.601 260.446 255.016 260.297 255.434C260.148 255.848 260.144 256.322 260.271 256.702L260.284 256.74L260.302 256.776C266.058 267.736 272.533 278.156 279.547 288.036L279.642 288.169L279.797 288.221L279.849 288.238C280.348 288.405 281.026 288.632 281.723 288.402C312.639 278.886 343.737 264.522 376.088 240.83C376.602 240.553 376.853 240.033 376.861 239.534C384.767 158.182 363.726 87.5978 321.121 24.929L321.095 24.8898L321.061 24.8564L321.049 24.8447C320.877 24.6722 320.601 24.396 320.111 24.3563C296.217 13.2405 270.354 5.17215 243.416 0.508155ZM160.427 158.626V158.63C160.427 179.392 145.518 196.148 126.996 196.148C108.831 196.148 93.5653 179.388 93.5653 158.63C93.5653 137.869 108.475 121.113 126.996 121.113C145.698 121.113 160.605 138.048 160.427 158.626ZM285.559 158.626V158.63C285.559 179.393 270.827 196.148 252.128 196.148C233.962 196.148 218.697 179.388 218.697 158.63C218.697 137.869 233.606 121.113 252.128 121.113C270.829 121.113 285.736 138.048 285.559 158.626Z" fill="#050205" stroke="#B76ACD"/>
</svg>
